<svg width="1024" height="1024" viewBox="0 0 1024 1024" fill="none" xmlns="http://www.w3.org/2000/svg">
<style>
  path { fill: white; }
  @media (prefers-color-scheme: light) {
    path { fill: #0A0A0A; }
  }
</style>
<path d="M17.4188 415.998C17.327 410.645 17.2731 405.288 17.2509 399.935C16.966 310.896 55.0697 223.099 117.924 160.349C163.549 115.477 221.107 84.655 283.745 71.558C323.616 63.0325 365.854 64.9731 406.702 64.9573L1009.05 64.5583C1005.01 87.539 1001.08 107.632 992.336 129.524C977.795 165.013 955.229 196.645 926.411 221.947C838.661 299.667 756.043 284.861 646.224 285.225L422.319 285.209C388.86 285.13 334.379 280.587 305.453 294.064C248.88 320.419 254.123 363.227 236.135 409.049L845.961 409.328C862.604 409.1 1015.65 408.153 1020.61 410.236C1017.2 412.012 1018.05 411.933 1014.43 412.63C917.971 444.246 844.929 502.434 798.3 593.831C795.068 600.178 792.054 606.633 789.265 613.19C862.113 612.648 935.696 608.375 1008.63 606.997C1008.6 630.665 1008.79 652.832 1005.13 676.443C985 806.143 882.691 917.354 755.359 948.712C707.714 960.444 654.37 957.57 605.404 957.5L470.044 957.633C323.233 957.807 171.112 959.545 24.5513 957.557C22.5125 957.528 20.4705 957.459 18.4318 957.354C24.3233 895.32 54.1263 838.019 101.531 797.579C183.336 728.989 248.14 739.572 346.144 738.977L603.176 737.809C625.099 737.688 679.95 739.322 698.504 735.931C715.065 732.898 730.511 725.478 743.228 714.448C775.779 686.437 773.518 651.933 788.334 613.37L259.879 614.007C193.146 614.007 116.192 616.868 50.7737 614.937C39.3261 616.356 16.0099 616.925 4.1033 615.365C3.86903 615.336 4.10649 614.741 4.10649 614.697C6.42703 612.873 8.21885 612.753 11.0902 612.325C116.942 582.155 193.013 512.621 234.612 410.423C166.003 410.09 86.484 413.639 17.4188 415.998Z"/>
</svg>
