<svg width="20" height="20" viewBox="0 0 20 20" fill="none" xmlns="http://www.w3.org/2000/svg">
<path d="M4.16648 8.34498C4.16534 8.27856 4.16467 8.21211 4.1644 8.14569C4.16086 7.04104 4.63359 5.95179 5.41339 5.17329C5.97944 4.61659 6.69352 4.23419 7.47065 4.0717C7.96529 3.96593 8.48932 3.99001 8.99611 3.98981L16.4691 3.98486C16.419 4.26997 16.3702 4.51926 16.2617 4.79086C16.0813 5.23114 15.8014 5.62359 15.4438 5.93749C14.3552 6.90173 13.3302 6.71803 11.9677 6.72255L9.18985 6.72235C8.77474 6.72137 8.09884 6.66501 7.73997 6.83221C7.0381 7.15919 7.10314 7.69028 6.87997 8.25877L14.4457 8.26222C14.6522 8.2594 16.5509 8.24765 16.6125 8.2735C16.5702 8.29553 16.5808 8.29455 16.5358 8.30319C15.3391 8.69544 14.4329 9.41734 13.8544 10.5513C13.8143 10.63 13.7769 10.7101 13.7423 10.7914C14.6461 10.7847 15.559 10.7317 16.4638 10.7146C16.4635 11.0082 16.4659 11.2832 16.4204 11.5762C16.1707 13.1853 14.9014 14.565 13.3217 14.9541C12.7306 15.0996 12.0688 15.064 11.4613 15.0631L9.78195 15.0647C7.96054 15.0669 6.07327 15.0885 4.25497 15.0638C4.22967 15.0634 4.20434 15.0626 4.17905 15.0613C4.25214 14.2917 4.62189 13.5808 5.21001 13.079C6.22492 12.2281 7.02891 12.3594 8.24479 12.352L11.4336 12.3375C11.7056 12.336 12.3861 12.3563 12.6163 12.3142C12.8218 12.2766 13.0134 12.1845 13.1712 12.0477C13.575 11.7002 13.547 11.2721 13.7308 10.7937L7.17454 10.8016C6.34664 10.8016 5.3919 10.8371 4.58029 10.8131C4.43827 10.8307 4.149 10.8378 4.00128 10.8184C3.99838 10.8181 4.00132 10.8107 4.00132 10.8101C4.03011 10.7875 4.05234 10.786 4.08796 10.7807C5.40121 10.4064 6.34499 9.54373 6.86108 8.27581C6.00988 8.27169 5.02333 8.31572 4.16648 8.34498Z" fill="white"/>
</svg>
